# xmcd
#
# Track frame offsets:
#	150
#	20698
#	31986
#	46889
#	60685
#	87812
#	102508
#	132375
#	165900
#	181330
#	194266
#	227924
#	259494
#	274311
#	292347
#	319113
#	330940
#
# Disc length: 4711 seconds
#
# Revision: 1
# Processed by: cddbd v1.5.1PL2 Copyright (c) Steve Scherf et al.
# Submitted via: audiograbber 1.83.01
#
DISCID=f8126511
DTITLE=The Animals - Lindas Picks
DYEAR=1900
DGENRE=
TTITLE0=house of the rising sun
TTITLE1=Don't let me be misunderstood
TTITLE2=we gotta get out of this place
TTITLE3=when I was young
TTITLE4=paint it black
TTITLE5=it's my life
TTITLE6=tobacco road
TTITLE7=sky pilot
TTITLE8=sanfrancisco nights
TTITLE9=cc rider
TTITLE10=river deep mountain high
TTITLE11=to love somebody
TTITLE12=don't bring me down
TTITLE13=many rivers to cross
TTITLE14=black plague
TTITLE15=bring it on home
TTITLE16=ring of fire
EXTD=
EXTT0=
EXTT1=
EXTT2=
EXTT3=
EXTT4=
EXTT5=
EXTT6=
EXTT7=
EXTT8=
EXTT9=
EXTT10=
EXTT11=
EXTT12=
EXTT13=
EXTT14=
EXTT15=
EXTT16=
PLAYORDER=
